<svg aria-hidden="true" style="position: absolute; width: 0; height: 0; overflow: hidden;" version="1.1" xmlns="http://www.w3.org/2000/svg" xmlns:xlink="http://www.w3.org/1999/xlink">
<defs>
<symbol id="icon-fa-car" viewBox="0 0 32 32">
<path d="M31.249 11h-3.742l-1.040-2.6c-1.069-2.673-3.619-4.4-6.499-4.4h-7.938c-2.879 0-5.43 1.727-6.499 4.4l-1.040 2.6h-3.741c-0.488 0-0.846 0.459-0.728 0.932l0.375 1.5c0.083 0.334 0.383 0.568 0.728 0.568h1.254c-0.839 0.733-1.38 1.799-1.38 3v3c0 1.008 0.385 1.917 1 2.621v3.379c0 1.104 0.896 2 2 2h2c1.104 0 2-0.896 2-2v-2h16v2c0 1.104 0.896 2 2 2h2c1.104 0 2-0.896 2-2v-3.379c0.615-0.703 1-1.613 1-2.621v-3c0-1.201-0.541-2.267-1.379-3h1.254c0.344 0 0.644-0.234 0.727-0.568l0.375-1.5c0.118-0.473-0.24-0.932-0.728-0.932zM9.245 9.886c0.456-1.139 1.559-1.886 2.786-1.886h7.937c1.227 0 2.33 0.747 2.786 1.886l1.246 3.114h-16l1.246-3.114zM6 19.988c-1.2 0-2-0.797-2-1.994s0.8-1.994 2-1.994 3 1.794 3 2.991c0 1.196-1.8 0.997-3 0.997zM26 19.988c-1.2 0-3 0.199-3-0.997s1.8-2.991 3-2.991 2 0.797 2 1.994c0 1.196-0.8 1.994-2 1.994z"></path>
</symbol>
<symbol id="icon-fa-coins" viewBox="0 0 32 32">
<path d="M0 25.331v2.669c0 2.206 5.375 4 12 4s12-1.794 12-4v-2.669c-2.581 1.819-7.3 2.669-12 2.669s-9.419-0.85-12-2.669zM20 8c6.625 0 12-1.794 12-4s-5.375-4-12-4c-6.625 0-12 1.794-12 4s5.375 4 12 4zM0 18.775v3.225c0 2.206 5.375 4 12 4s12-1.794 12-4v-3.225c-2.581 2.125-7.306 3.225-12 3.225s-9.419-1.1-12-3.225zM26 19.462c3.581-0.694 6-1.981 6-3.463v-2.669c-1.45 1.025-3.581 1.725-6 2.156v3.975zM12 10c-6.625 0-12 2.238-12 5s5.375 5 12 5c6.625 0 12-2.238 12-5s-5.375-5-12-5zM25.706 13.519c3.75-0.675 6.294-2 6.294-3.519v-2.669c-2.219 1.569-6.031 2.413-10.044 2.612 1.844 0.894 3.2 2.094 3.75 3.575z"></path>
</symbol>
<symbol id="icon-fa-credit-card" viewBox="0 0 32 32">
<path d="M0 26c0 1.472 1.194 2.667 2.667 2.667h26.667c1.472 0 2.667-1.194 2.667-2.667v-9.778h-32v9.778zM10.667 22.222c0-0.367 0.3-0.667 0.667-0.667h7.556c0.367 0 0.667 0.3 0.667 0.667v2.222c0 0.367-0.3 0.667-0.667 0.667h-7.556c-0.367 0-0.667-0.3-0.667-0.667v-2.222zM3.556 22.222c0-0.367 0.3-0.667 0.667-0.667h4c0.367 0 0.667 0.3 0.667 0.667v2.222c0 0.367-0.3 0.667-0.667 0.667h-4c-0.367 0-0.667-0.3-0.667-0.667v-2.222zM32 6.444v2.667h-32v-2.667c0-1.472 1.194-2.667 2.667-2.667h26.667c1.472 0 2.667 1.194 2.667 2.667z"></path>
</symbol>
<symbol id="icon-fa-dollar-sign" viewBox="0 0 18 32">
<path d="M13.073 14.588l-6.75-1.975c-0.781-0.225-1.325-0.956-1.325-1.769 0-1.019 0.825-1.844 1.844-1.844h4.144c0.762 0 1.512 0.231 2.138 0.656 0.381 0.256 0.894 0.194 1.219-0.125l2.175-2.125c0.444-0.431 0.381-1.15-0.113-1.531-1.531-1.2-3.444-1.869-5.406-1.875v-3c0-0.55-0.45-1-1-1h-2c-0.55 0-1 0.45-1 1v3h-0.156c-3.981 0-7.181 3.419-6.813 7.475 0.263 2.881 2.462 5.225 5.237 6.037l6.406 1.875c0.781 0.231 1.325 0.956 1.325 1.769 0 1.019-0.825 1.844-1.844 1.844h-4.144c-0.763 0-1.513-0.231-2.138-0.656-0.381-0.256-0.894-0.194-1.219 0.125l-2.175 2.125c-0.444 0.431-0.381 1.15 0.113 1.531 1.531 1.2 3.444 1.869 5.406 1.875v3c0 0.55 0.45 1 1 1h2c0.55 0 1-0.45 1-1v-3.012c2.912-0.056 5.644-1.788 6.606-4.544 1.344-3.85-0.913-7.8-4.531-8.856z"></path>
</symbol>
<symbol id="icon-heart" viewBox="0 0 32 32">
<path fill="none" stroke="#fff" style="stroke: var(--color1, #fff)" stroke-linejoin="round" stroke-linecap="round" stroke-miterlimit="4" stroke-width="2.6667" d="M27.787 6.147c-0.681-0.681-1.49-1.222-2.38-1.591s-1.844-0.559-2.807-0.559c-0.963 0-1.917 0.19-2.807 0.559s-1.698 0.909-2.38 1.591l-1.413 1.413-1.413-1.413c-1.376-1.376-3.241-2.148-5.187-2.148s-3.811 0.773-5.187 2.148c-1.376 1.376-2.148 3.241-2.148 5.187s0.773 3.811 2.148 5.187l11.787 11.787 11.787-11.787c0.681-0.681 1.222-1.49 1.591-2.38s0.559-1.844 0.559-2.807c0-0.963-0.19-1.917-0.559-2.807s-0.909-1.699-1.591-2.38z"></path>
</symbol>
</defs>
</svg>
